<svg width="36" height="36" viewBox="0 0 36 36" fill="none" xmlns="http://www.w3.org/2000/svg">
<path fill-rule="evenodd" clip-rule="evenodd" d="M20.34 1.88277C20.7054 1.99768 21.0246 2.22617 21.2512 2.53501C21.4778 2.84384 21.6 3.21692 21.6 3.59997V12.6H28.8C29.1292 12.5998 29.4522 12.69 29.7338 12.8607C30.0153 13.0313 30.2447 13.2759 30.3969 13.5679C30.5491 13.8599 30.6183 14.188 30.597 14.5165C30.5757 14.8451 30.4646 15.1615 30.276 15.4314L17.676 33.4314C17.4567 33.7455 17.1429 33.9815 16.7802 34.105C16.4175 34.2285 16.0249 34.2331 15.6594 34.118C15.294 34.003 14.9748 33.7743 14.7483 33.4653C14.5217 33.1563 14.3997 32.7831 14.4 32.4V23.4H7.19997C6.87072 23.4001 6.54773 23.3099 6.26616 23.1393C5.98459 22.9686 5.75523 22.724 5.60303 22.432C5.45083 22.1401 5.38163 21.812 5.40295 21.4834C5.42427 21.1548 5.53531 20.8384 5.72397 20.5686L18.324 2.56857C18.5436 2.25498 18.8575 2.01959 19.22 1.89659C19.5826 1.77358 19.9749 1.76937 20.34 1.88457V1.88277Z" fill="#1B1F24"/>
</svg>
