<svg width="36" height="36" viewBox="0 0 36 36" fill="none" xmlns="http://www.w3.org/2000/svg">
<path d="M34.0596 12.9133L34.0476 12.8531C34.0395 12.8129 34.0355 12.7767 34.0235 12.7365C34.0154 12.7124 34.0074 12.6924 34.0034 12.6682C33.9913 12.6361 33.9833 12.5999 33.9672 12.5678C33.9592 12.5437 33.9471 12.5236 33.9351 12.4995C33.919 12.4674 33.9029 12.4392 33.8869 12.4071C33.8748 12.387 33.8628 12.3629 33.8467 12.3428C33.8145 12.2946 33.7784 12.2464 33.7422 12.1982C33.7221 12.174 33.698 12.1459 33.6739 12.1218C33.6578 12.1017 33.6378 12.0857 33.6177 12.0696C33.5936 12.0455 33.5654 12.0254 33.5413 12.0053C33.5212 11.9892 33.5011 11.9732 33.477 11.9571C33.469 11.9531 33.461 11.945 33.4529 11.941L18.7677 2.16557C18.5411 2.01424 18.2747 1.93347 18.0023 1.93347C17.7298 1.93347 17.4634 2.01424 17.2369 2.16557L2.54355 11.949C2.53552 11.9531 2.52748 11.9611 2.51945 11.9651C2.49936 11.9812 2.47927 11.9973 2.45516 12.0133C2.42704 12.0334 2.40293 12.0575 2.37882 12.0776C2.35873 12.0937 2.34266 12.1138 2.32257 12.1299C2.29847 12.154 2.27436 12.1781 2.25427 12.2062C2.21409 12.2504 2.18195 12.2986 2.1498 12.3508C2.13775 12.3709 2.12168 12.391 2.10963 12.4151C2.09355 12.4432 2.07748 12.4754 2.06141 12.5075C2.04936 12.5276 2.04132 12.5517 2.02927 12.5758C2.01722 12.608 2.00516 12.6441 1.99311 12.6763C1.98507 12.7004 1.97704 12.7205 1.97302 12.7446C1.96498 12.7807 1.95695 12.8209 1.94891 12.8611L1.93686 12.9214C1.92882 12.9816 1.9248 13.0419 1.9248 13.1022V22.8857C1.9248 22.9459 1.92882 23.0062 1.93686 23.0665L1.94891 23.1267L1.97302 23.2432C1.98105 23.2674 1.98507 23.2874 1.99311 23.3115C2.00516 23.3477 2.01722 23.3799 2.02927 23.412C2.0373 23.4361 2.04936 23.4562 2.06141 23.4803C2.07748 23.5124 2.08954 23.5406 2.10963 23.5727C2.12168 23.5928 2.13373 23.6169 2.1498 23.637C2.16989 23.6651 2.18597 23.6932 2.21007 23.7214L2.25829 23.7816C2.27838 23.8057 2.30248 23.8339 2.32659 23.858C2.34266 23.8781 2.36275 23.8941 2.38284 23.9102C2.40695 23.9343 2.43507 23.9544 2.45918 23.9745C2.47927 23.9906 2.49936 24.0066 2.52347 24.0227C2.5315 24.0267 2.53954 24.0348 2.54757 24.0388L17.2369 33.8223C17.4619 33.9749 17.7311 34.0553 18.0043 34.0553C18.2694 34.0553 18.5386 33.979 18.7717 33.8223L33.461 24.0388C33.469 24.0348 33.477 24.0267 33.4851 24.0227C33.5052 24.0066 33.5252 23.9906 33.5494 23.9745C33.5775 23.9544 33.6016 23.9303 33.6257 23.9102C33.6458 23.8941 33.6619 23.8741 33.6819 23.858C33.7061 23.8339 33.7302 23.8098 33.7502 23.7816L33.7985 23.7214L33.8587 23.637C33.8708 23.6169 33.8869 23.5968 33.8989 23.5727C33.915 23.5406 33.9311 23.5124 33.9471 23.4803C33.9592 23.4602 33.9672 23.4361 33.9793 23.412C33.9913 23.3799 34.0034 23.3437 34.0154 23.3115C34.0235 23.2915 34.0315 23.2674 34.0355 23.2432C34.0476 23.2071 34.0516 23.1669 34.0596 23.1267L34.0717 23.0665C34.0797 23.0062 34.0837 22.9459 34.0837 22.8857V13.0941C34.0717 13.0339 34.0677 12.9736 34.0596 12.9133ZM19.3824 5.89012L30.2065 13.0982L25.373 16.3285L19.3864 12.3267V5.89012H19.3824ZM16.6181 5.89012V12.3267L10.6315 16.3285L5.79802 13.0982L16.6181 5.89012ZM4.68909 15.6776L8.14445 17.9879L4.68909 20.2982V15.6776ZM16.6181 30.0816L5.79802 22.8736L10.6315 19.6432L16.6181 23.645V30.0816ZM18.0003 21.2504L13.1145 17.9879L18.0003 14.7214L22.886 17.9839L18.0003 21.2504ZM19.3824 30.0816V23.645L25.369 19.6432L30.2025 22.8736L19.3824 30.0816ZM31.3114 20.2941L27.8561 17.9839L31.3114 15.6736V20.2941Z" fill="#1B1F24"/>
</svg>
