<svg width="36" height="36" viewBox="0 0 36 36" fill="none" xmlns="http://www.w3.org/2000/svg">
<mask id="mask0_1610_621" style="mask-type:alpha" maskUnits="userSpaceOnUse" x="0" y="0" width="36" height="36">
<rect width="36" height="36" fill="#D9D9D9"/>
</mask>
<g mask="url(#mask0_1610_621)">
<path d="M15.7922 27.7357L24.1115 17.6472H18.0586L19.1605 9.00389L11.6845 19.828H16.9163L15.7922 27.7357ZM14.0029 22.3625H9.45193C8.89766 22.3625 8.49467 22.1199 8.24297 21.6346C7.99127 21.1494 8.02632 20.6706 8.34812 20.1981L19.8788 3.50501C20.0454 3.27426 20.2743 3.10839 20.5653 3.00742C20.8563 2.90647 21.139 2.9156 21.4133 3.03483C21.6877 3.14765 21.9085 3.33624 22.0758 3.60059C22.2431 3.86497 22.3149 4.14079 22.2912 4.42807L20.9364 15.1126H26.5633C27.1591 15.1126 27.5824 15.3795 27.8332 15.9131C28.084 16.4467 28.0184 16.9414 27.6364 17.3972L15.0086 32.6413C14.8045 32.8686 14.5629 33.0196 14.2839 33.0944C14.0049 33.1693 13.7266 33.1341 13.449 32.9889C13.1651 32.8501 12.9606 32.6583 12.8356 32.4137C12.7106 32.169 12.6651 31.8948 12.6991 31.5913L14.0029 22.3625Z" fill="#1B1F24"/>
</g>
</svg>
