<svg width="36" height="36" viewBox="0 0 36 36" fill="none" xmlns="http://www.w3.org/2000/svg">
<path d="M26.5189 6.19863V3.09283C26.5189 2.82363 26.2095 2.67497 26.0006 2.83971L7.88805 16.9866C7.73416 17.1063 7.60964 17.2595 7.52398 17.4346C7.43833 17.6097 7.3938 17.8021 7.3938 17.9971C7.3938 18.192 7.43833 18.3844 7.52398 18.5595C7.60964 18.7346 7.73416 18.8879 7.88805 19.0076L26.0006 33.1544C26.2135 33.3192 26.5189 33.1705 26.5189 32.9013V29.7955C26.5189 29.5986 26.4264 29.4098 26.2738 29.2893L11.8095 17.9991L26.2738 6.70488C26.4264 6.58435 26.5189 6.39551 26.5189 6.19863Z" fill="#1B1F24"/>
</svg>
