<svg width="36" height="36" viewBox="0 0 36 36" fill="none" xmlns="http://www.w3.org/2000/svg">
<path d="M31.7658 9.04665C31.0094 7.30242 29.9188 5.72316 28.5555 4.39799C27.1878 3.06084 25.5754 1.99956 23.8064 1.27209C21.9663 0.5087 20.0136 0.122986 18.0006 0.122986C15.9877 0.122986 14.035 0.5087 12.1948 1.26808C10.4149 2.00334 8.81982 3.05602 7.44572 4.39397C6.08335 5.71988 4.99288 7.29896 4.23545 9.04263C3.45197 10.8507 3.0542 12.7712 3.0542 14.748C3.0542 17.5846 3.73322 20.4091 5.06715 23.1333C6.13991 25.323 7.63857 27.4565 9.52697 29.4855C12.7533 32.9489 16.1363 35.0663 17.0966 35.6328C17.3692 35.7938 17.6801 35.8784 17.9966 35.8779C18.31 35.8779 18.6194 35.7975 18.8966 35.6328C19.8569 35.0663 23.2399 32.9489 26.4663 29.4855C28.3546 27.4605 29.8533 25.323 30.9261 23.1333C32.268 20.4132 32.9471 17.5926 32.9471 14.752C32.9471 12.7752 32.5493 10.8547 31.7658 9.04665ZM18.0006 32.7962C15.3529 31.1127 5.94706 24.4471 5.94706 14.752C5.94706 11.6221 7.19661 8.68102 9.4667 6.46316C11.7448 4.24129 14.7743 3.01584 18.0006 3.01584C21.227 3.01584 24.2564 4.24129 26.5346 6.46718C28.8046 8.68102 30.0542 11.6221 30.0542 14.752C30.0542 24.4471 20.6484 31.1127 18.0006 32.7962ZM18.0006 7.99799C14.0953 7.99799 10.9292 11.1641 10.9292 15.0694C10.9292 18.9748 14.0953 22.1408 18.0006 22.1408C21.906 22.1408 25.0721 18.9748 25.0721 15.0694C25.0721 11.1641 21.906 7.99799 18.0006 7.99799ZM21.1828 18.2516C20.7654 18.6701 20.2694 19.002 19.7233 19.2282C19.1772 19.4544 18.5917 19.5703 18.0006 19.5694C16.7993 19.5694 15.6703 19.0993 14.8185 18.2516C14.3999 17.8342 14.068 17.3382 13.8418 16.7921C13.6157 16.246 13.4997 15.6605 13.5006 15.0694C13.5006 13.8681 13.9707 12.7391 14.8185 11.8873C15.6703 11.0355 16.7993 10.5694 18.0006 10.5694C19.202 10.5694 20.331 11.0355 21.1828 11.8873C22.0346 12.7391 22.5006 13.8681 22.5006 15.0694C22.5006 16.2708 22.0346 17.3998 21.1828 18.2516Z" fill="#1B1F24"/>
</svg>
